<svg xmlns="http://www.w3.org/2000/svg" xmlns:xlink="http://www.w3.org/1999/xlink" viewBox="0 0 660 240" style="enable-background:new 0 0 660 240;" width="300" height="120"><defs><style>.cls-1{fill:url(#linear-gradient);}.cls-2{fill:url(#linear-gradient-2);}.cls-3{fill:#fff;}.cls-4{fill:url(#linear-gradient-3);}.cls-5{fill:url(#linear-gradient-4);}.cls-6{fill:url(#linear-gradient-5);}.cls-7{fill:url(#linear-gradient-6);}</style><linearGradient id="linear-gradient" y1="58.32" x2="180.62" y2="58.32" gradientUnits="userSpaceOnUse"><stop offset="0" stop-color="#00cbe4"/><stop offset="0.31" stop-color="#00c9e1"/><stop offset="0.5" stop-color="#00c2d9"/><stop offset="0.66" stop-color="#01b6cb"/><stop offset="0.8" stop-color="#02a5b6"/><stop offset="0.93" stop-color="#02909c"/><stop offset="1" stop-color="#038089"/></linearGradient><linearGradient id="linear-gradient-2" x1="0.01" y1="58.62" x2="182.83" y2="58.62" gradientUnits="userSpaceOnUse"><stop offset="0" stop-color="#00c0d6"/><stop offset="0.22" stop-color="#00bcd2"/><stop offset="0.45" stop-color="#01b1c4"/><stop offset="0.7" stop-color="#029faf"/><stop offset="0.95" stop-color="#038690"/><stop offset="1" stop-color="#038089"/></linearGradient><linearGradient id="linear-gradient-3" x1="408.15" y1="96.57" x2="361.61" y2="15.97" xlink:href="#linear-gradient-2"/><linearGradient id="linear-gradient-4" x1="463.41" y1="99.95" x2="423.83" y2="31.39" xlink:href="#linear-gradient-2"/><linearGradient id="linear-gradient-5" x1="518.33" y1="81.79" x2="479.77" y2="15" xlink:href="#linear-gradient-2"/><linearGradient id="linear-gradient-6" x1="567.87" y1="93" x2="525.72" y2="20" xlink:href="#linear-gradient-2"/></defs><title>white10x</title><g id="Layer_2" data-name="Layer 2"><g id="horizontal_gradient"><polygon class="cls-1" points="173.95 116.65 76.16 14.56 7.6 114.19 0 108.96 74.98 0 180.62 110.27 173.95 116.65"/><polygon class="cls-2" points="5.2 116.48 0.01 108.97 156.74 0.59 182.83 114.51 173.96 116.65 150.98 15.67 5.2 116.48"/><path class="cls-3" d="M232.46,18.56v75.2h-5.13V24.93L213.69,35.29V29.46l14-10.9Z"/><path class="cls-3" d="M250,76.5V36.15c0-11.11,7.94-18.67,19.13-18.67S288.24,25,288.24,36.15V76.5c0,11.11-7.93,18.66-19.13,18.66S250,87.61,250,76.5Zm33.25,0V36.15c0-8.63-5.73-14.13-14.12-14.13s-14,5.5-14,14.13V76.5c0,8.63,5.61,14.14,14,14.14S283.23,85.13,283.23,76.5Z"/><path class="cls-3" d="M338.65,94.08l-17-34.41-17,34.41h-5.83l19.82-39.16L299.7,18.56h5.95l16,31.72,16-31.72h5.83L324.66,54.92l19.83,39.16Z"/><path class="cls-4" d="M412.64,18.56V94h-5.37V45.32c0-5.82.24-11,.46-16.08l-.22-.1c-1.75,4.2-4.09,9.49-6.42,14.77l-13.53,31.3H382.2l-13.65-31.3c-2.22-5.28-4.55-10.57-6.3-14.77l-.23.1c.23,5.08.34,10.26.34,16.08V94h-5.24V18.56h5.6l16.56,37.11c1.75,4,4,9.83,5.48,13.49H385c1.41-3.66,3.62-9.49,5.48-13.49L407,18.56Z"/><path class="cls-5" d="M462.6,74.77H435.43l-5.36,19.31h-5.61L446,18.56H452l21.58,75.52H468Zm-1.28-4.53-8.51-31c-1.41-5.18-2.8-10.89-3.73-14.35H449c-.94,3.46-2.33,9.17-3.74,14.35l-8.51,31Z"/><path class="cls-6" d="M515.47,23.2H497V94.08h-5.25V23.2H473.6V18.56h41.87Z"/><path class="cls-7" d="M566,89.56v4.52H528.21V18.56h37V23.1H533.45V53.42H563v4.52H533.45V89.56Z"/></g></g></svg>